<svg xmlns="http://www.w3.org/2000/svg" viewBox="0 0 354.54 337.14"><defs><style>.cls-1,.cls-17{fill:none;}.cls-1{stroke:#414141;}.cls-1,.cls-11,.cls-12,.cls-7,.cls-9{stroke-miterlimit:10;}.cls-2{fill:#67bd45;}.cls-3{font-size:10px;}.cls-15,.cls-27,.cls-3,.cls-6{fill:#fff;}.cls-27,.cls-3,.cls-6{font-family:Avenir-Medium, Avenir;font-weight:500;}.cls-4{letter-spacing:-0.09em;}.cls-5{fill:#429e69;}.cls-6{font-size:10.76px;}.cls-16,.cls-7{fill:#f89d4d;}.cls-11,.cls-12,.cls-14,.cls-16,.cls-17,.cls-7,.cls-9{stroke:#000;}.cls-11,.cls-12,.cls-14,.cls-16,.cls-7,.cls-9{stroke-width:0.95px;}.cls-8{fill:#df7d32;}.cls-9{fill:#fee889;}.cls-10{fill:#f4d865;}.cls-11,.cls-13{fill:#fff4c6;}.cls-12,.cls-22{fill:#f59192;}.cls-14,.cls-16,.cls-17{stroke-linecap:round;stroke-linejoin:round;}.cls-17{stroke-width:0.37px;}.cls-18{fill:#b4926e;}.cls-19{fill:#ffedde;}.cls-20{fill:#67c18c;}.cls-21{fill:#a4ceed;}.cls-23{fill:#ffe5cc;}.cls-24{fill:#563815;}.cls-25{fill:#54aa77;}.cls-26{fill:#f9d12a;}.cls-27{font-size:9px;}</style></defs><title>userAsset 2ar</title><g id="Layer_2" data-name="Layer 2"><g id="Layer_1-2" data-name="Layer 1"><circle class="cls-1" cx="176.62" cy="175.24" r="95"/><circle class="cls-1" cx="176.62" cy="175.24" r="132.67"/><circle class="cls-2" cx="177.21" cy="34.71" r="34.71"/><text class="cls-3" transform="translate(149.86 32.02)">COGNITIVE<tspan x="1.94" y="12">LEARNING</tspan></text><circle class="cls-2" cx="313.77" cy="134.43" r="34.71"/><text class="cls-3" transform="translate(295.61 130.13)">SAFETY<tspan x="-11.1" y="12">EDUC</tspan><tspan class="cls-4" x="16.5" y="12">A</tspan><tspan x="22.62" y="12">TION</tspan></text><circle class="cls-2" cx="40.77" cy="134.43" r="34.71"/><text class="cls-3" transform="translate(22.8 125.13)">SOCIAL<tspan x="-9.24" y="12">COMMUNI-</tspan><tspan x="-1.02" y="24">C</tspan><tspan class="cls-4" x="6.02" y="24">A</tspan><tspan x="12.15" y="24">TION</tspan></text><circle class="cls-2" cx="87.21" cy="302.43" r="34.71"/><text class="cls-3" transform="translate(68.86 300.4)">HEA<tspan class="cls-4" x="20.56" y="0">L</tspan><tspan x="24.83" y="0">TH</tspan><tspan x="-10.27" y="12">EDUC</tspan><tspan class="cls-4" x="17.33" y="12">A</tspan><tspan x="23.45" y="12">TION</tspan></text><circle class="cls-5" cx="109.47" cy="110.55" r="25.39"/><text class="cls-6" transform="translate(93.19 112.92)">AGE 4</text><circle class="cls-5" cx="244.33" cy="232.83" r="25.39"/><text class="cls-6" transform="translate(228.49 236.81)">AGE 6</text><circle class="cls-5" cx="109.47" cy="232.83" r="25.39"/><text class="cls-6" transform="translate(92.55 236.81)">AGE 5</text><circle class="cls-5" cx="244.27" cy="110.55" r="25.39"/><text class="cls-6" transform="translate(225.51 110.53)">MOM &amp;<tspan x="7.84" y="10">DAD</tspan></text><path class="cls-7" d="M161.33,204.92a.52.52,0,0,0,.52.52h7.4a.52.52,0,0,0,.29-.95l-3.91-2.94a.39.39,0,0,1-.13-.3v-1.13c0-1.71.92-4.41-1.06-4.41a3,3,0,0,0-3.1,3.11v6.1Z"/><polygon class="cls-8" points="166.39 205.06 165.4 203.36 165.62 205.06 166.39 205.06"/><polygon class="cls-8" points="164.4 205.06 163.41 203.36 163.63 205.06 164.4 205.06"/><path class="cls-7" d="M152.83,204.92a.52.52,0,0,1-.52.52h-7.4a.52.52,0,0,1-.29-.95l3.92-2.94a.42.42,0,0,0,.12-.3v-1.13c0-1.71-.92-4.41,1.06-4.41a3,3,0,0,1,3.1,3.11v6.1Z"/><polygon class="cls-8" points="147.77 205.06 148.76 203.36 148.54 205.06 147.77 205.06"/><polygon class="cls-8" points="149.76 205.06 150.75 203.36 150.53 205.06 149.76 205.06"/><path class="cls-9" d="M156.94,180.16S142.46,165,130.47,164c-4-.33-6.38.43-7,2.22a4.38,4.38,0,0,0,1.55,4.77s-2.25,2.1-.79,4.53a3.93,3.93,0,0,0,3.92,2,4.24,4.24,0,0,0,.36,3.1C129.78,182.74,133.48,184.76,156.94,180.16Z"/><path class="cls-10" d="M134.74,171.8s-6.36.2-9.2-.87a3.89,3.89,0,0,0-1.07,1.49S127.57,173.84,134.74,171.8Z"/><path class="cls-10" d="M135.86,175.3a39.7,39.7,0,0,1-7.15,1.74,1.85,1.85,0,0,0-.33,1.51A13,13,0,0,0,135.86,175.3Z"/><path class="cls-9" d="M157,180.16S171.44,165,183.43,164c4-.33,6.38.43,7,2.22a4.4,4.4,0,0,1-1.56,4.77s2.25,2.1.79,4.53a3.93,3.93,0,0,1-3.92,2,4.24,4.24,0,0,1-.36,3.1C184.12,182.74,180.42,184.76,157,180.16Z"/><path class="cls-10" d="M179.16,171.8s6.36.2,9.2-.87a3.89,3.89,0,0,1,1.07,1.49S186.34,173.84,179.16,171.8Z"/><path class="cls-10" d="M178,175.3A39.66,39.66,0,0,0,185.2,177a1.88,1.88,0,0,1,.32,1.51A13,13,0,0,1,178,175.3Z"/><path class="cls-9" d="M173.15,185.78c0,9.15-7.15,14-16.3,14s-16.84-4.84-16.84-14a19.39,19.39,0,0,1,4.13-11.59c1.21-1.65,2.68-4.07,4.28-5a18,18,0,0,1,8.46-2.49,15.14,15.14,0,0,1,8.32,2.49c1.68,1,3.13,3.75,4.36,5.72C171.76,178.46,173.15,182,173.15,185.78Z"/><path class="cls-11" d="M166.62,186.56c0,5.06-4.37,9.16-9.76,9.16s-9.76-4.1-9.76-9.16a9.62,9.62,0,0,1,3.53-7.29,9.77,9.77,0,0,1,6.23-1.87C162.25,177.4,166.62,180.87,166.62,186.56Z"/><path class="cls-12" d="M149.51,174.53v1.54a2.69,2.69,0,0,0,4,2.33l1.34-.77a2.69,2.69,0,0,0,0-4.66l-1.34-.78A2.7,2.7,0,0,0,149.51,174.53Z"/><path class="cls-12" d="M164.2,174.53v1.54a2.69,2.69,0,0,1-4,2.33l-1.33-.77a2.69,2.69,0,0,1,0-4.66l1.33-.78A2.7,2.7,0,0,1,164.2,174.53Z"/><rect class="cls-12" x="155.46" y="173.3" width="2.75" height="3.97"/><rect class="cls-12" x="154.94" y="138.37" width="4.62" height="3.28" rx="1.64"/><path class="cls-12" d="M167,153.67H147a4.15,4.15,0,0,1-4.14-4.13h0a9.68,9.68,0,0,1,9.65-9.65h9a9.68,9.68,0,0,1,9.65,9.65h0A4.15,4.15,0,0,1,167,153.67Z"/><path class="cls-12" d="M162.28,153.67h-11a4.15,4.15,0,0,1-4.14-4.13h0a9.68,9.68,0,0,1,9.65-9.65h0a9.68,9.68,0,0,1,9.65,9.65h0A4.14,4.14,0,0,1,162.28,153.67Z"/><path class="cls-9" d="M172.61,155.52c-1.32-7.1-8.91-12-15.57-12s-14.24,4.91-15.56,12a42.93,42.93,0,0,0-.8,8.82,8.69,8.69,0,0,0,2.24,5.74c1.78,2,6.91,4.43,14.12,4.44s12.35-2.48,14.13-4.44a8.69,8.69,0,0,0,2.24-5.74A42.93,42.93,0,0,0,172.61,155.52Z"/><path class="cls-12" d="M156.94,166.48c3.42,0,6.2-1.39,6.2-3.1H150.73C150.73,165.09,153.51,166.48,156.94,166.48Z"/><circle class="cls-13" cx="145.99" cy="164.58" r="5.05"/><circle class="cls-13" cx="167.98" cy="164.58" r="5.05"/><circle class="cls-14" cx="148.66" cy="159.01" r="1.55"/><circle class="cls-15" cx="147.84" cy="158.68" r="0.52"/><circle class="cls-14" cx="165.45" cy="159.01" r="1.55"/><circle class="cls-15" cx="164.73" cy="158.68" r="0.52"/><path class="cls-7" d="M150.73,163.38c-.56,0,.05,1,1,1.69a9.51,9.51,0,0,0,5.2,1.41,10.59,10.59,0,0,0,5.37-1.55c1.1-.85,1.42-1.55.83-1.55s-3.43,1.53-6.2,1.55S151.29,163.38,150.73,163.38Z"/><path class="cls-7" d="M157,161c-1.62,0-3,.82-4.31,1.12-2.39.54-4,.24-4,1.11s8.34.87,8.34.87,8.39-.25,8.39-1-1.56-.49-4-1C160.1,161.8,158.55,161,157,161Z"/><line class="cls-16" x1="163.15" y1="155.45" x2="167.64" y2="154.25"/><line class="cls-16" x1="150.86" y1="155.45" x2="146.37" y2="154.25"/><polygon class="cls-17" points="242.41 195.8 242.41 195.8 242.41 195.81 242.41 195.8"/><rect class="cls-18" x="213.18" y="163.57" width="8.42" height="17.9" rx="4.21" transform="translate(176.68 447.04) rotate(-120)"/><path d="M213.29,179.48a4.55,4.55,0,0,1-3.95-2.28l0,0a4.57,4.57,0,0,1,1.66-6.22l8.26-4.77a4.56,4.56,0,0,1,6.21,1.67l0,0a4.57,4.57,0,0,1-1.67,6.22l-8.26,4.77A4.52,4.52,0,0,1,213.29,179.48Zm-3.34-2.7,0,.05a3.81,3.81,0,0,0,5.2,1.4l8.26-4.77a3.82,3.82,0,0,0,1.4-5.21l0-.05a3.82,3.82,0,0,0-5.21-1.4l-8.26,4.77a3.82,3.82,0,0,0-1.39,5.21Z"/><circle class="cls-19" cx="221.14" cy="170.35" r="1.53"/><circle class="cls-19" cx="223.92" cy="170.58" r="0.63"/><circle class="cls-19" cx="223.66" cy="168.82" r="0.63"/><circle class="cls-19" cx="222.41" cy="167.72" r="0.63"/><path class="cls-18" d="M221.63,167.72a1.26,1.26,0,0,0-.7-1.29,1.2,1.2,0,0,0-1.4.37"/><path d="M221.63,168.09h-.06a.36.36,0,0,1-.31-.41.85.85,0,0,0-.48-.9.83.83,0,0,0-1,.25.38.38,0,0,1-.52.07.37.37,0,0,1-.06-.52,1.57,1.57,0,0,1,1.84-.48,1.6,1.6,0,0,1,.91,1.68A.37.37,0,0,1,221.63,168.09Z"/><circle class="cls-19" cx="220.38" cy="167.72" r="0.63"/><path class="cls-20" d="M214.59,169.27l4.13,7.35-3.84,2.17s-3.54,1.31-5.22-1.77a4.47,4.47,0,0,1,1-5.41Z"/><path d="M213.16,179.42a4.13,4.13,0,0,1-3.83-2.23c-1.8-3.3,1-5.83,1.07-5.86l0,0,4-2.35a.42.42,0,0,1,.29,0,.39.39,0,0,1,.22.18l4.13,7.34a.38.38,0,0,1-.14.51l-3.84,2.17-.05,0A6,6,0,0,1,213.16,179.42Zm-2.3-7.51a4.05,4.05,0,0,0-.88,4.93c1.46,2.67,4.41,1.73,4.74,1.61l3.49-2-3.76-6.7Z"/><rect class="cls-21" x="200.58" y="136.62" width="4.67" height="3.32" rx="1.66"/><path d="M203.59,140.3h-1.36a2,2,0,0,1,0-4.05h1.36a2,2,0,0,1,0,4.05ZM202.23,137a1.29,1.29,0,0,0,0,2.58h1.36a1.29,1.29,0,0,0,0-2.58Z"/><path class="cls-21" d="M196.85,137.86h11.64a7.61,7.61,0,0,1,7.61,7.61v0a6.33,6.33,0,0,1-6.33,6.33H195.57a6.33,6.33,0,0,1-6.33-6.33v0a7.61,7.61,0,0,1,7.61-7.61Z"/><path d="M212.79,151.91H192.52a4.55,4.55,0,0,1-4.54-4.55,10.13,10.13,0,0,1,10.12-10.12h9.12a10.13,10.13,0,0,1,10.12,10.12A4.55,4.55,0,0,1,212.79,151.91ZM198.1,138a9.4,9.4,0,0,0-9.39,9.39,3.82,3.82,0,0,0,3.81,3.81h20.27a3.82,3.82,0,0,0,3.82-3.81,9.4,9.4,0,0,0-9.39-9.39Z"/><path class="cls-21" d="M201,138h3a7.61,7.61,0,0,1,7.61,7.61v0a6.33,6.33,0,0,1-6.33,6.33h-5.52a6.33,6.33,0,0,1-6.33-6.33v0A7.61,7.61,0,0,1,201,138Z"/><path d="M208,151.91H196.84a4.55,4.55,0,0,1-4.55-4.55,10.13,10.13,0,0,1,20.25,0A4.55,4.55,0,0,1,208,151.91ZM202.42,138a9.4,9.4,0,0,0-9.39,9.39,3.82,3.82,0,0,0,3.81,3.81H208a3.82,3.82,0,0,0,3.81-3.81A9.4,9.4,0,0,0,202.42,138Z"/><path class="cls-18" d="M218.16,201.56l-13.91-.07c-2.44,0-4.43-1.25-4.43-2.79v-1.19c0-1.53,2-2.79,4.43-2.79,0,0,26.08,2.45,26.08,4h0C230.33,200.24,220.59,201.56,218.16,201.56Z"/><path d="M218.16,201.93h0l-13.92-.07c-2.64,0-4.79-1.42-4.79-3.16v-1.19c0-1.74,2.15-3.16,4.8-3.16.1,0,6.63.63,13.08,1.42,13.36,1.65,13.36,2.42,13.36,2.93C230.69,200.85,219.56,201.93,218.16,201.93Zm-13.95-6.84c-2.16,0-4,1.11-4,2.42v1.19c0,1.32,1.86,2.42,4.06,2.42l13.91.07a48.06,48.06,0,0,0,6.87-.83c4-.76,4.75-1.41,4.89-1.6C228.64,197.82,215.85,196.18,204.21,195.09Z"/><rect class="cls-18" x="183.88" y="162.92" width="8.42" height="17.9" rx="4.21" transform="translate(-54.8 248.83) rotate(-60)"/><path d="M192.19,178.83a4.54,4.54,0,0,1-2.26-.61l-8.26-4.77a4.56,4.56,0,0,1-1.66-6.21l0-.06a4.56,4.56,0,0,1,6.21-1.66l8.26,4.77a4.56,4.56,0,0,1,1.67,6.21l0,.05a4.51,4.51,0,0,1-2.76,2.12A4.8,4.8,0,0,1,192.19,178.83ZM184,165.65a3.81,3.81,0,0,0-1,.13,3.75,3.75,0,0,0-2.31,1.77l0,.06a3.82,3.82,0,0,0,1.4,5.2l8.26,4.77a3.79,3.79,0,0,0,2.89.38,3.84,3.84,0,0,0,2.32-1.77l0-.06a3.82,3.82,0,0,0-1.4-5.21l-8.26-4.76A3.72,3.72,0,0,0,184,165.65Z"/><circle class="cls-19" cx="184.34" cy="169.7" r="1.53"/><circle class="cls-19" cx="181.56" cy="169.94" r="0.63"/><circle class="cls-19" cx="181.82" cy="168.17" r="0.63"/><circle class="cls-19" cx="183.08" cy="167.07" r="0.63"/><path class="cls-18" d="M183.86,167.07a1.24,1.24,0,0,1,.69-1.29,1.2,1.2,0,0,1,1.4.37"/><path d="M183.86,167.44a.38.38,0,0,1-.37-.31,1.61,1.61,0,0,1,.91-1.69,1.57,1.57,0,0,1,1.84.48.37.37,0,0,1-.06.52.38.38,0,0,1-.52-.06.82.82,0,0,0-1-.26.85.85,0,0,0-.48.9.36.36,0,0,1-.31.41Z"/><circle class="cls-19" cx="185.1" cy="167.07" r="0.63"/><path class="cls-20" d="M190.89,168.62,186.77,176l3.83,2.17s3.55,1.31,5.22-1.77a4.47,4.47,0,0,0-1-5.41Z"/><path d="M192.32,178.78a5.61,5.61,0,0,1-1.84-.3l-.06,0-3.83-2.17a.37.37,0,0,1-.14-.5l4.12-7.35a.33.33,0,0,1,.23-.17.35.35,0,0,1,.28,0l3.95,2.35.06,0s2.86,2.56,1.06,5.86A4.14,4.14,0,0,1,192.32,178.78Zm-1.56-1c.33.12,3.29,1,4.74-1.61a4,4,0,0,0-.88-4.93L191,169.13l-3.76,6.7Z"/><path class="cls-18" d="M196.69,206.18h-4.92c-2.17,0-4.5-.2-5-2a1.31,1.31,0,0,1,.26-1.14l1.4-1.77-1.12-5.19a4.43,4.43,0,0,1,4.42-4.42h4.92a4.43,4.43,0,0,1,4.42,4.42v5.66A4.44,4.44,0,0,1,196.69,206.18Z"/><path d="M196.69,206.55h-4.92c-2.45,0-4.8-.28-5.32-2.26a1.69,1.69,0,0,1,.33-1.47l1.3-1.64-1.1-5.09a4.8,4.8,0,0,1,4.79-4.79h4.92a4.8,4.8,0,0,1,4.79,4.79v5.66A4.8,4.8,0,0,1,196.69,206.55Zm-9-10.49,1.15,5.31-1.51,1.91a1,1,0,0,0-.2.82c.4,1.5,2.45,1.71,4.61,1.71h4.92a4.06,4.06,0,0,0,4.05-4.06v-5.66a4.06,4.06,0,0,0-4.05-4.05h-4.92A4.06,4.06,0,0,0,187.72,196.06Z"/><path class="cls-18" d="M208.4,206.18h4.91c2.18,0,4.5-.2,5-2a1.32,1.32,0,0,0-.27-1.14l-1.4-1.77,1.12-5.19a4.43,4.43,0,0,0-4.42-4.42H208.4a4.43,4.43,0,0,0-4.42,4.42v5.66A4.44,4.44,0,0,0,208.4,206.18Z"/><path d="M213.31,206.55H208.4a4.8,4.8,0,0,1-4.79-4.8v-5.66a4.8,4.8,0,0,1,4.79-4.79h4.91a4.8,4.8,0,0,1,4.79,4.79v.08l-1.08,5,1.29,1.64a1.73,1.73,0,0,1,.34,1.47C218.12,206.27,215.77,206.55,213.31,206.55ZM208.4,192a4.06,4.06,0,0,0-4.06,4.05v5.66a4.06,4.06,0,0,0,4.06,4.06h4.91c2.16,0,4.22-.21,4.61-1.71a.94.94,0,0,0-.2-.82l-1.51-1.91,1.16-5.31a4.07,4.07,0,0,0-4.06-4Z"/><path class="cls-20" d="M218.2,189.4s-1-5.25-1.94-9.71c-.45-2-2.1-7.52-3.6-8.61-2.74-2-7-2-10-2s-7.26,0-10,2c-1.5,1.09-3.15,6.59-3.6,8.61-1,4.46-1.94,9.71-1.94,9.71a29.34,29.34,0,0,0,.39,7.72l1,4.45,11.85,3,.37-.65.56,0c.46,0,.93,0,1.41,0s1,0,1.41,0l.56,0,.37.65,11.85-3,1-4.45A29.34,29.34,0,0,0,218.2,189.4Z"/><path d="M205,204.92a.38.38,0,0,1-.32-.18l-.28-.49-.33,0c-.49,0-.95,0-1.41,0s-.92,0-1.41,0l-.33,0-.28.49a.37.37,0,0,1-.41.17l-11.85-3a.37.37,0,0,1-.27-.28l-1-4.44a29.24,29.24,0,0,1-.39-7.84c0-.08,1-5.33,1.94-9.75.43-1.93,2.1-7.63,3.75-8.82,2.78-2,7-2,10.05-2h.44c3.06,0,7.18,0,9.93,2,1.65,1.19,3.32,6.89,3.75,8.82,1,4.42,1.93,9.67,1.94,9.72v0a29.24,29.24,0,0,1-.39,7.84l-1,4.44a.37.37,0,0,1-.27.28l-11.85,3Zm-.93-1.43h0l.55,0a.38.38,0,0,1,.3.19l.23.41,11.36-2.87.91-4.22a29,29,0,0,0,.38-7.59c-.06-.33-1-5.4-1.93-9.68-.55-2.51-2.17-7.45-3.46-8.39-2.59-1.88-6.66-1.9-9.62-1.88h-.44c-3,0-6.94,0-9.5,1.88-1.29.94-2.91,5.88-3.46,8.39-1,4.4-1.93,9.64-1.93,9.69a29,29,0,0,0,.38,7.58l.91,4.22,11.36,2.87.23-.41a.38.38,0,0,1,.3-.19l.55,0h.05c.48,0,.94,0,1.39,0s.91,0,1.39,0Z"/><rect class="cls-19" x="195.52" y="164.72" width="14.47" height="13.42" rx="4.28"/><path d="M205.81,178.51H199.7a4.55,4.55,0,0,1-4.55-4.55V168.9a4.55,4.55,0,0,1,4.55-4.55h6.11a4.55,4.55,0,0,1,4.55,4.55V174A4.55,4.55,0,0,1,205.81,178.51Zm-6.11-13.42a3.82,3.82,0,0,0-3.81,3.81V174a3.82,3.82,0,0,0,3.81,3.81h6.11a3.82,3.82,0,0,0,3.81-3.81V168.9a3.82,3.82,0,0,0-3.81-3.81Z"/><path class="cls-19" d="M218.42,153.41c-1.34-7.18-9-12.14-15.74-12.15s-14.4,5-15.73,12.15a43.24,43.24,0,0,0-.81,8.91,8.79,8.79,0,0,0,2.26,5.8c1.8,2,7,4.48,14.28,4.49s12.48-2.5,14.28-4.49a8.8,8.8,0,0,0,2.27-5.8A43.24,43.24,0,0,0,218.42,153.41Z"/><path d="M202.68,173c-7.13,0-12.54-2.4-14.55-4.62a9.09,9.09,0,0,1-2.36-6,43.28,43.28,0,0,1,.82-9c1.42-7.67,9.46-12.44,16.09-12.45s14.67,4.78,16.1,12.45a43.85,43.85,0,0,1,.81,9,9.08,9.08,0,0,1-2.35,6C215.23,170.58,209.81,173,202.68,173Zm0-31.35c-6.36,0-14.05,4.77-15.37,11.85a43.05,43.05,0,0,0-.8,8.84,8.4,8.4,0,0,0,2.16,5.55c1.91,2.1,7.11,4.37,14,4.37s12.11-2.27,14-4.37a8.36,8.36,0,0,0,2.17-5.55,42.48,42.48,0,0,0-.81-8.84h0C216.74,146.4,209,141.64,202.68,141.63Z"/><path class="cls-22" d="M198.53,162.16a4.21,4.21,0,0,0,8.42,0Z"/><path d="M202.74,166.74a4.58,4.58,0,0,1-4.58-4.58v-.37h9.16v.37A4.58,4.58,0,0,1,202.74,166.74Zm-3.83-4.21a3.85,3.85,0,0,0,7.66,0Z"/><rect class="cls-18" x="185.81" y="144.08" width="9.12" height="9.12" rx="4.56" transform="matrix(0.97, -0.26, 0.26, 0.97, -31.99, 54.34)"/><path d="M190.28,153.6a4.78,4.78,0,0,1-4.63-3.55l-.07-.26a4.79,4.79,0,0,1,.48-3.64,4.74,4.74,0,0,1,2.91-2.23l.26-.07a4.79,4.79,0,0,1,5.87,3.39l.07.26a4.8,4.8,0,0,1-3.39,5.87l-.26.07A4.8,4.8,0,0,1,190.28,153.6Zm.19-9.18a4.21,4.21,0,0,0-1.05.14l-.26.07a4.07,4.07,0,0,0-2.87,5l.07.26a4.06,4.06,0,0,0,5,2.87l.26-.07a4.06,4.06,0,0,0,2.87-5l-.07-.26A4.07,4.07,0,0,0,190.47,144.42Z"/><path class="cls-23" d="M190.37,145.51h0a3.13,3.13,0,0,1,3.13,3.13v0a3.14,3.14,0,0,1-3.14,3.14h0a3.13,3.13,0,0,1-3.13-3.13v0a3.14,3.14,0,0,1,3.14-3.14Z" transform="translate(-31.99 54.34) rotate(-15)"/><path d="M190.37,152.15a3.5,3.5,0,0,1-.9-6.89,3.5,3.5,0,0,1,3.94,5.13,3.47,3.47,0,0,1-2.13,1.64h0A3.5,3.5,0,0,1,190.37,152.15Zm0-6.27a2.94,2.94,0,0,0-.71.09,2.77,2.77,0,0,0,1.43,5.35h0a2.77,2.77,0,0,0-.72-5.44Z"/><rect class="cls-18" x="210.51" y="144.08" width="9.12" height="9.12" rx="4.56" transform="translate(-31.14 60.73) rotate(-15)"/><path d="M215,153.6a4.79,4.79,0,0,1-4.63-3.55l-.07-.26a4.79,4.79,0,0,1,.48-3.64,4.74,4.74,0,0,1,2.91-2.23l.26-.07a4.8,4.8,0,0,1,5.87,3.39l.07.26a4.8,4.8,0,0,1-3.39,5.87l-.26.07A4.85,4.85,0,0,1,215,153.6Zm.19-9.18a4.21,4.21,0,0,0-1,.14l-.26.07a4,4,0,0,0-2.46,1.89,4,4,0,0,0-.41,3.08l.07.26a4.06,4.06,0,0,0,5,2.87l.26-.07a4.06,4.06,0,0,0,2.87-5l-.07-.26A4.07,4.07,0,0,0,215.17,144.42Z"/><rect class="cls-23" x="211.94" y="145.51" width="6.27" height="6.27" rx="3.14" transform="translate(-31.14 60.73) rotate(-15)"/><path d="M215.07,152.15a3.52,3.52,0,1,1,3-1.76A3.43,3.43,0,0,1,216,152h0A3.5,3.5,0,0,1,215.07,152.15Zm0-6.27a2.82,2.82,0,0,0-.71.09,2.77,2.77,0,0,0,1.43,5.35h0a2.76,2.76,0,0,0,.66-5.07A2.7,2.7,0,0,0,215.07,145.88Z"/><path class="cls-18" d="M191.4,156.87a5.19,5.19,0,0,1,5.08,4.1c0-.09,0-.15,0-.15s0,.06,0,.15.05.24.07.37a3,3,0,0,0,3,2.62c2.46,0,2.33-1.75,3.14-1.76s.87,1.76,3.13,1.76a3,3,0,0,0,3.06-2.63L209,161a.77.77,0,0,0,0-.15.77.77,0,0,1,0,.15,5.2,5.2,0,0,1,10.29,1.09,42.11,42.11,0,0,0-.81-8.65c-1.33-7.18-9-12.14-15.73-12.15s-14.4,5-15.74,12.15a42.68,42.68,0,0,0-.8,8.65A5.19,5.19,0,0,1,191.4,156.87Z"/><path d="M202.7,173c-7.13,0-12.54-2.4-14.55-4.62a9.09,9.09,0,0,1-2.36-6,43.85,43.85,0,0,1,.81-9c1.43-7.67,9.47-12.44,16.1-12.45s14.67,4.78,16.1,12.45h0a43.91,43.91,0,0,1,.81,9,9.13,9.13,0,0,1-2.35,6C215.24,170.58,209.83,173,202.7,173Zm0-31.35c-6.36,0-14,4.77-15.37,11.85a43.05,43.05,0,0,0-.8,8.84,8.4,8.4,0,0,0,2.16,5.55c1.91,2.1,7.11,4.37,14,4.37s12.1-2.27,14-4.37a8.36,8.36,0,0,0,2.17-5.55,42.48,42.48,0,0,0-.81-8.84h0C216.76,146.4,209.06,141.64,202.7,141.63Z"/><path d="M205.82,164.33a3.05,3.05,0,0,1-2.67-1.35c-.21-.25-.34-.41-.46-.41h0c-.1,0-.19.11-.39.38a3,3,0,0,1-2.75,1.38,3.49,3.49,0,0,1-3.5-3.49.36.36,0,0,1,.35-.38.35.35,0,0,1,.38.35h0c0,.11.18,2.78,2.77,2.78a2.24,2.24,0,0,0,2.16-1.08c.24-.33.49-.67,1-.68h0a1.37,1.37,0,0,1,1,.69,2.34,2.34,0,0,0,2.1,1.07c2.58,0,2.76-2.67,2.76-2.78a.38.38,0,0,1,.39-.35.37.37,0,0,1,.35.38A3.5,3.5,0,0,1,205.82,164.33Z"/><rect class="cls-24" x="201.21" y="158.95" width="2.97" height="1.67" rx="0.4"/><path d="M203.35,161h-1.3a1.21,1.21,0,0,1,0-2.41h1.3a1.21,1.21,0,1,1,0,2.41Zm-1.3-1.67a.47.47,0,1,0,0,.93h1.3a.47.47,0,1,0,0-.93Z"/><circle cx="194.23" cy="156.94" r="1.57"/><path d="M194.23,158.87a1.94,1.94,0,1,1,1.94-1.93A1.94,1.94,0,0,1,194.23,158.87Zm0-3.13a1.2,1.2,0,1,0,1.2,1.2A1.2,1.2,0,0,0,194.23,155.74Z"/><circle class="cls-15" cx="193.4" cy="156.6" r="0.52"/><circle cx="211.19" cy="156.94" r="1.57"/><path d="M211.19,158.87a1.94,1.94,0,1,1,1.94-1.93A1.94,1.94,0,0,1,211.19,158.87Zm0-3.13a1.2,1.2,0,1,0,1.2,1.2A1.2,1.2,0,0,0,211.19,155.74Z"/><circle class="cls-15" cx="210.47" cy="156.6" r="0.52"/><path d="M195.2,162.48h-4.41a.37.37,0,0,1,0-.74h4.41a.37.37,0,0,1,0,.74Z"/><path d="M191.15,165.21a.38.38,0,0,1-.36-.28.37.37,0,0,1,.27-.45l4.25-1.14a.37.37,0,1,1,.19.71l-4.25,1.14Z"/><path d="M214.39,162.48H210a.37.37,0,0,1,0-.74h4.41a.37.37,0,0,1,0,.74Z"/><path d="M214,165.21l-.09,0-4.26-1.14a.36.36,0,0,1-.26-.45.37.37,0,0,1,.45-.26l4.26,1.14a.38.38,0,0,1,.26.45A.38.38,0,0,1,214,165.21Z"/><path class="cls-19" d="M192.48,152.91a.39.39,0,0,1-.27-.11.37.37,0,0,1,0-.52,4.12,4.12,0,0,1,1.65-.94,4.42,4.42,0,0,1,2.24.26.37.37,0,0,1,.22.47.38.38,0,0,1-.48.22,3.75,3.75,0,0,0-1.8-.24,3.34,3.34,0,0,0-1.32.76A.35.35,0,0,1,192.48,152.91Z"/><path class="cls-19" d="M213,153.08a.37.37,0,0,1-.29-.14,2.53,2.53,0,0,0-1.28-.72,3.2,3.2,0,0,0-1.79.23.38.38,0,0,1-.49-.18.37.37,0,0,1,.18-.49,4,4,0,0,1,2.26-.28,3.25,3.25,0,0,1,1.7,1,.38.38,0,0,1-.06.52A.4.4,0,0,1,213,153.08Z"/><path class="cls-25" d="M203.65,189.11h-1.93a6.29,6.29,0,0,1-6.27-6.27v-2.09h14.47v2.09A6.29,6.29,0,0,1,203.65,189.11Z"/><path d="M203.65,189.48h-1.93a6.65,6.65,0,0,1-6.64-6.64v-2.09a.36.36,0,0,1,.37-.37h14.47a.37.37,0,0,1,.37.37v2.09A6.65,6.65,0,0,1,203.65,189.48Zm-7.83-8.36v1.72a5.9,5.9,0,0,0,5.9,5.9h1.93a5.91,5.91,0,0,0,5.9-5.9v-1.72Z"/><circle class="cls-26" cx="260.83" cy="302.43" r="34.71"/><text class="cls-27" transform="translate(234.13 299.98)">BEGINNER’S<tspan x="-2.25" y="10.8">CURRICULUM</tspan></text></g></g></svg>